HIERARCHY
ROOT Hips
{
	OFFSET 0.00000 0.00000 0.00000
	CHANNELS 6 Xposition Yposition Zposition Zrotation Yrotation Xrotation 
	JOINT LHipJoint
	{
		OFFSET 0 0 0
		CHANNELS 3 Zrotation Yrotation Xrotation
		JOINT LeftUpLeg
		{
			OFFSET 1.61328 -1.70571 0.84375
			CHANNELS 3 Zrotation Yrotation Xrotation
			JOINT LeftLeg
			{
				OFFSET 2.32400 -6.38513 0.00000
				CHANNELS 3 Zrotation Yrotation Xrotation
				JOINT LeftFoot
				{
					OFFSET 2.58843 -7.11166 0.00000
					CHANNELS 3 Zrotation Yrotation Xrotation
					JOINT LeftToeBase
					{
						OFFSET 0.17200 -0.47257 2.47970
						CHANNELS 3 Zrotation Yrotation Xrotation
						End Site
						{
							OFFSET 0.00000 -0.00000 1.26912
						}
					}
				}
			}
		}
	}
	JOINT RHipJoint
	{
		OFFSET 0 0 0
		CHANNELS 3 Zrotation Yrotation Xrotation
		JOINT RightUpLeg
		{
			OFFSET -1.49930 -1.70570 0.84375
			CHANNELS 3 Zrotation Yrotation Xrotation
			JOINT RightLeg
			{
				OFFSET -2.30458 -6.33178 0.00000
				CHANNELS 3 Zrotation Yrotation Xrotation
				JOINT RightFoot
				{
					OFFSET -2.62261 -7.20556 0.00000
					CHANNELS 3 Zrotation Yrotation Xrotation
					JOINT RightToeBase
					{
						OFFSET -0.18709 -0.51403 2.51340
						CHANNELS 3 Zrotation Yrotation Xrotation
						End Site
						{
							OFFSET -0.00000 -0.00000 1.28858
						}
					}
				}
			}
		}
	}
	JOINT LowerBack
	{
		OFFSET 0 0 0
		CHANNELS 3 Zrotation Yrotation Xrotation
		JOINT Spine
		{
			OFFSET -0.03798 2.19274 -0.19881
			CHANNELS 3 Zrotation Yrotation Xrotation
			JOINT Spine1
			{
				OFFSET -0.00024 2.19460 0.05248
				CHANNELS 3 Zrotation Yrotation Xrotation
				JOINT Neck
				{
					OFFSET 0 0 0
					CHANNELS 3 Zrotation Yrotation Xrotation
					JOINT Neck1
					{
						OFFSET -0.00746 1.82323 0.17286
						CHANNELS 3 Zrotation Yrotation Xrotation
						JOINT Head
						{
							OFFSET 0.11826 1.82121 -0.27841
							CHANNELS 3 Zrotation Yrotation Xrotation
							End Site
							{
								OFFSET 0.03496 1.85543 -0.11495
							}
						}
					}
				}
				JOINT LeftShoulder
				{
					OFFSET 0 0 0
					CHANNELS 3 Zrotation Yrotation Xrotation
					JOINT LeftArm
					{
						OFFSET 3.71926 0.78840 0.25473
						CHANNELS 3 Zrotation Yrotation Xrotation
						JOINT LeftForeArm
						{
							OFFSET 5.37587 -0.00000 0.00000
							CHANNELS 3 Zrotation Yrotation Xrotation
							JOINT LeftHand
							{
								OFFSET 3.35977 -0.00000 0.00000
								CHANNELS 3 Zrotation Yrotation Xrotation
								JOINT LeftFingerBase
								{
									OFFSET 0 0 0
									CHANNELS 3 Zrotation Yrotation Xrotation
									JOINT LeftHandIndex1
									{
										OFFSET 0.56186 -0.00000 0.00000
										CHANNELS 3 Zrotation Yrotation Xrotation
										End Site
										{
											OFFSET 0.45299 -0.00000 0.00000
										}
									}
								}
								JOINT LThumb
								{
									OFFSET 0 0 0
									CHANNELS 3 Zrotation Yrotation Xrotation
									End Site
									{
										OFFSET 0.45990 -0.00000 0.45990
									}
								}
							}
						}
					}
				}
				JOINT RightShoulder
				{
					OFFSET 0 0 0
					CHANNELS 3 Zrotation Yrotation Xrotation
					JOINT RightArm
					{
						OFFSET -3.65136 0.56074 0.01624
						CHANNELS 3 Zrotation Yrotation Xrotation
						JOINT RightForeArm
						{
							OFFSET -5.22819 -0.00000 0.00000
							CHANNELS 3 Zrotation Yrotation Xrotation
							JOINT RightHand
							{
								OFFSET -3.40764 -0.00000 0.00000
								CHANNELS 3 Zrotation Yrotation Xrotation
								JOINT RightFingerBase
								{
									OFFSET 0 0 0
									CHANNELS 3 Zrotation Yrotation Xrotation
									JOINT RightHandIndex1
									{
										OFFSET -0.58325 -0.00000 0.00000
										CHANNELS 3 Zrotation Yrotation Xrotation
										End Site
										{
											OFFSET -0.47024 -0.00000 0.00000
										}
									}
								}
								JOINT RThumb
								{
									OFFSET 0 0 0
									CHANNELS 3 Zrotation Yrotation Xrotation
									End Site
									{
										OFFSET -0.47742 -0.00000 0.47742
									}
								}
							}
						}
					}
				}
			}
		}
	}
}
MOTION
Frames: 11
Frame Time: .0083333
46.1953 16.4952 -7.2569 0 0 0 0 0 0 -21 0 0 0 0 0 0 0 0 0 0 0 0 0 0 21 0 0 0 0 0 0 0 0 0 0 0 0 0 0 0 0 0 0 0 0 0 0 -16 0 0 21 0 0 11 0 0 0 -8 0 0 0 0 0 0 0 0 0 0 0 0 0 0 0 0 0 0 0 0 8 0 0 0 0 0 0 0 0 0 0 0 0 0 0 0 0 0
46.1953 16.4952 -7.2569 -40.8624 -87.2199 42.9238 0.0000 0.0000 0.0000 -19.8614 -0.6001 -10.6724 2.6913 10.1777 29.5540 1.4007 5.5380 -24.9649 0.0637 -1.6279 -4.4785 0.0000 0.0000 0.0000 23.2617 3.1767 -14.1352 -4.2100 -12.4347 37.2878 -2.6150 0.5628 -30.4881 -1.1020 -6.6704 18.7424 -0.6626 -0.6682 -4.4422 1.1608 -0.9492 3.8811 1.4852 -0.5441 6.5655 -9.5230 -10.5370 -1.4812 14.7256 -14.0339 -2.8652 5.5380 -7.0427 1.1520 0.0000 0.0000 0.0000 -91.3313 -4.1123 25.2889 13.6588 -22.2448 -2.6976 -0.0000 0.0000 -9.1615 21.0392 16.7573 6.3283 -7.1250 0.0000 -0.0000 -6.5611 47.7513 -0.4472 0.0000 0.0000 0.0000 89.6705 4.4233 20.7511 -12.7231 20.8802 -2.3537 0.0000 0.0000 1.3482 -22.1456 6.2321 -2.5297 7.1250 -0.0000 -0.0000 3.3860 -23.2585 1.7768
46.1959 16.4953 -7.2573 -40.8065 -87.2248 42.8811 0.0000 0.0000 0.0000 -19.8611 -0.5822 -10.6950 2.6908 10.1769 29.5514 1.4079 5.4585 -24.9727 0.0571 -1.5420 -4.2416 0.0000 0.0000 0.0000 23.2548 3.1749 -14.1603 -4.2116 -12.4367 37.2950 -2.6120 0.5651 -30.4692 -1.1021 -6.6705 18.7429 -0.6744 -0.6769 -4.4466 1.1702 -0.9599 3.8576 1.5006 -0.5497 6.5438 -9.5865 -10.5238 -1.4719 14.7706 -14.0216 -2.8145 5.5604 -7.0353 1.1719 -0.0000 0.0000 0.0000 -91.3473 -4.0779 25.2601 13.6529 -22.2364 -2.6954 -0.0000 0.0000 -9.1445 21.0370 16.7857 6.3379 -7.1250 0.0000 -0.0000 -6.5701 47.7806 -0.4526 -0.0000 0.0000 0.0000 89.6483 4.3818 20.8283 -12.7297 20.8899 -2.3560 0.0000 0.0000 1.3358 -22.1513 6.2197 -2.5254 7.1250 -0.0000 -0.0000 3.3817 -23.2715 1.7735
46.1966 16.4948 -7.2582 -40.5955 -87.2235 42.6549 0.0000 0.0000 0.0000 -19.8654 -0.5724 -10.6824 2.6903 10.1761 29.5488 1.3999 5.5007 -24.9364 0.0631 -1.6206 -4.4584 0.0000 0.0000 0.0000 23.2518 3.1714 -14.1487 -4.2128 -12.4383 37.3007 -2.6124 0.5561 -30.4742 -1.0985 -6.6600 18.7121 -0.6805 -0.6623 -4.4340 1.1605 -0.9395 3.8654 1.4961 -0.5398 6.5441 -9.5873 -10.5405 -1.4905 14.8240 -14.0462 -2.8038 5.5731 -7.0471 1.1854 -0.0000 0.0000 0.0000 -91.3236 -4.0942 25.3033 13.6469 -22.2277 -2.6931 -0.0000 0.0000 -9.1358 21.0333 16.7088 6.3087 -7.1250 0.0000 -0.0000 -6.5549 47.6996 -0.4384 -0.0000 0.0000 0.0000 89.6642 4.3780 20.8078 -12.7345 20.8969 -2.3577 0.0000 0.0000 1.3230 -22.1269 6.1986 -2.5139 7.1250 -0.0000 -0.0000 3.3996 -23.2954 1.7811
46.1968 16.4947 -7.2585 -40.6637 -87.2254 42.7132 0.0000 0.0000 0.0000 -19.8627 -0.5705 -10.6721 2.6901 10.1756 29.5471 1.4022 5.4887 -24.9476 0.0611 -1.5946 -4.3866 0.0000 0.0000 0.0000 23.2559 3.1735 -14.1392 -4.2136 -12.4393 37.3043 -2.6141 0.5546 -30.4848 -1.1003 -6.6654 18.7278 -0.6772 -0.6694 -4.4211 1.1651 -0.9491 3.8455 1.4982 -0.5441 6.5159 -9.6109 -10.5347 -1.5251 14.8109 -14.0462 -2.6850 5.5670 -7.0425 1.2263 -0.0000 -0.0000 0.0000 -91.3375 -4.0569 25.2560 13.6410 -22.2192 -2.6909 -0.0000 0.0000 -9.1215 21.0484 16.7232 6.3189 -7.1250 0.0000 -0.0000 -6.5440 47.7168 -0.4404 -0.0000 -0.0000 0.0000 89.6609 4.3520 20.8155 -12.7165 20.8705 -2.3513 0.0000 0.0000 1.3769 -22.1460 6.2214 -2.5255 7.1250 -0.0000 -0.0000 3.3857 -23.2699 1.7757
46.1972 16.4946 -7.2591 -40.5874 -87.2266 42.6279 0.0000 0.0000 0.0000 -19.8641 -0.5616 -10.6651 2.6895 10.1746 29.5440 1.4010 5.4894 -24.9387 0.0615 -1.5997 -4.4006 0.0000 0.0000 0.0000 23.2539 3.1684 -14.1340 -4.2145 -12.4405 37.3088 -2.6146 0.5535 -30.4885 -1.0995 -6.6629 18.7205 -0.6790 -0.6680 -4.4113 1.1638 -0.9467 3.8341 1.4983 -0.5427 6.4980 -9.6378 -10.5379 -1.5655 14.8332 -14.0581 -2.5805 5.5711 -7.0443 1.2685 0.0000 0.0000 0.0000 -91.3368 -4.0378 25.2450 13.6327 -22.2072 -2.6877 -0.0000 0.0000 -9.1074 21.0560 16.7218 6.3209 -7.1250 0.0000 -0.0000 -6.5365 47.7164 -0.4399 0.0000 0.0000 0.0000 89.6630 4.3323 20.8147 -12.7069 20.8562 -2.3479 0.0000 0.0000 1.4004 -22.1493 6.2389 -2.5329 7.1250 -0.0000 -0.0000 3.3834 -23.2510 1.7760
46.1974 16.4946 -7.2595 -40.4645 -87.2286 42.4958 0.0000 0.0000 0.0000 -19.8687 -0.5568 -10.6568 2.6892 10.1742 29.5426 1.3993 5.4986 -24.9305 0.0625 -1.6127 -4.4366 0.0000 0.0000 0.0000 23.2497 3.1618 -14.1268 -4.2149 -12.4410 37.3104 -2.6152 0.5500 -30.4930 -1.0980 -6.6587 18.7080 -0.6830 -0.6663 -4.4020 1.1611 -0.9436 3.8212 1.4982 -0.5411 6.4789 -9.6696 -10.5419 -1.6198 14.8589 -14.0732 -2.4450 5.5750 -7.0464 1.3230 -0.0000 0.0000 0.0000 -91.3347 -4.0164 25.2339 13.6233 -22.1936 -2.6842 -0.0000 0.0000 -9.0937 21.0645 16.7290 6.3263 -7.1250 0.0000 -0.0000 -6.5302 47.7253 -0.4409 -0.0000 0.0000 0.0000 89.6671 4.3118 20.8037 -12.6944 20.8379 -2.3435 0.0000 0.0000 1.4295 -22.1526 6.2632 -2.5432 7.1250 -0.0000 -0.0000 3.3811 -23.2246 1.7768
46.1976 16.4946 -7.2601 -40.3762 -87.2299 42.3996 0.0000 0.0000 0.0000 -19.8720 -0.5539 -10.6489 2.6889 10.1735 29.5403 1.3976 5.5096 -24.9244 0.0635 -1.6256 -4.4720 0.0000 0.0000 0.0000 23.2473 3.1574 -14.1202 -4.2153 -12.4415 37.3123 -2.6159 0.5472 -30.4979 -1.0975 -6.6569 18.7029 -0.6867 -0.6655 -4.3929 1.1596 -0.9418 3.8038 1.4990 -0.5399 6.4552 -9.7093 -10.5460 -1.6874 14.8832 -14.0916 -2.2663 5.5774 -7.0485 1.3932 -0.0000 -0.0000 0.0000 -91.3338 -3.9887 25.2175 13.6126 -22.1781 -2.6801 -0.0000 0.0000 -9.0807 21.0670 16.7420 6.3318 -7.1250 0.0000 -0.0000 -6.5310 47.7391 -0.4432 -0.0000 -0.0000 0.0000 89.6706 4.2872 20.7887 -12.6800 20.8166 -2.3383 0.0000 0.0000 1.4615 -22.1556 6.2861 -2.5528 7.1250 -0.0000 -0.0000 3.3790 -23.1998 1.7776
46.1975 16.4947 -7.2606 -40.2975 -87.2289 42.3149 0.0000 0.0000 0.0000 -19.8730 -0.5547 -10.6423 2.6885 10.1729 29.5385 1.3957 5.5237 -24.9180 0.0647 -1.6417 -4.5165 0.0000 0.0000 0.0000 23.2479 3.1571 -14.1131 -4.2154 -12.4416 37.3127 -2.6169 0.5428 -30.5049 -1.0975 -6.6571 18.7034 -0.6901 -0.6657 -4.3878 1.1586 -0.9411 3.7854 1.5000 -0.5394 6.4327 -9.7570 -10.5506 -1.7756 14.9111 -14.1137 -2.0434 5.5792 -7.0505 1.4809 -0.0000 0.0000 0.0000 -91.3319 -3.9613 25.1988 13.6006 -22.1609 -2.6756 -0.0000 0.0000 -9.0685 21.0663 16.7543 6.3361 -7.1250 0.0000 -0.0000 -6.5347 47.7521 -0.4455 -0.0000 0.0000 0.0000 89.6743 4.2627 20.7715 -12.6653 20.7948 -2.3331 0.0000 0.0000 1.4911 -22.1570 6.3043 -2.5603 7.1250 -0.0000 -0.0000 3.3780 -23.1802 1.7786
46.1973 16.4949 -7.2612 -40.3011 -87.2261 42.3151 0.0000 0.0000 0.0000 -19.8697 -0.5583 -10.6377 2.6884 10.1728 29.5380 1.3942 5.5386 -24.9151 0.0659 -1.6567 -4.5578 0.0000 0.0000 0.0000 23.2535 3.1592 -14.1067 -4.2150 -12.4412 37.3110 -2.6172 0.5338 -30.5097 -1.0968 -6.6552 18.6977 -0.6908 -0.6672 -4.3856 1.1591 -0.9426 3.7638 1.5008 -0.5397 6.4087 -9.8053 -10.5554 -1.8829 14.9297 -14.1394 -1.7719 5.5757 -7.0523 1.5857 0.0000 -0.0000 0.0000 -91.3300 -3.9302 25.1739 13.5886 -22.1435 -2.6711 -0.0000 0.0000 -9.0575 21.0608 16.7610 6.3367 -7.1250 0.0000 -0.0000 -6.5415 47.7583 -0.4470 0.0000 -0.0000 0.0000 89.6821 4.2471 20.7390 -12.6422 20.7607 -2.3249 0.0000 0.0000 1.5388 -22.1595 6.3191 -2.5666 7.1250 -0.0000 -0.0000 3.3763 -23.1642 1.7789
46.1969 16.4951 -7.2619 -40.3371 -87.2223 42.3516 0.0000 0.0000 0.0000 -19.8641 -0.5646 -10.6362 2.6885 10.1729 29.5384 1.3933 5.5497 -24.9150 0.0666 -1.6648 -4.5802 0.0000 0.0000 0.0000 23.2619 3.1662 -14.1018 -4.2143 -12.4403 37.3078 -2.6180 0.5264 -30.5164 -1.0977 -6.6576 18.7047 -0.6893 -0.6699 -4.3906 1.1590 -0.9457 3.7406 1.4996 -0.5407 6.3871 -9.8472 -10.5621 -2.0060 14.9342 -14.1702 -1.4592 5.5647 -7.0551 1.7042 0.0000 -0.0000 0.0000 -91.3265 -3.9001 25.1428 13.5751 -22.1240 -2.6660 -0.0000 0.0000 -9.0460 21.0536 16.7626 6.3349 -7.1250 0.0000 -0.0000 -6.5487 47.7588 -0.4476 0.0000 -0.0000 0.0000 89.6949 4.2411 20.6943 -12.6133 20.7180 -2.3147 0.0000 0.0000 1.5950 -22.1590 6.3300 -2.5710 7.1250 -0.0000 -0.0000 3.3767 -23.1526 1.7801
